<svg width="512" height="512" viewBox="0 0 512 512" xmlns="http://www.w3.org/2000/svg">
  <rect width="512" height="512" rx="100" fill="#0f172a"/>

  <circle cx="256" cy="256" r="60" fill="#0ea5e9" opacity="0.2"/>
  <circle cx="256" cy="256" r="35" fill="#0ea5e9"/>
  <circle cx="256" cy="256" r="15" fill="#ffffff"/>

  <g fill="none" stroke="#22d3ee" stroke-width="24" stroke-linecap="round">
    <path d="M120 120 C 180 180, 332 332, 392 392" stroke-opacity="0.8"/>
    <path d="M392 120 C 332 180, 290 220, 270 240"/>
    <path d="M240 270 C 220 290, 180 332, 120 392"/>
  </g>

  <circle cx="120" cy="120" r="20" fill="#a855f7"/> <circle cx="392" cy="392" r="20" fill="#a855f7"/>
  <circle cx="392" cy="120" r="20" fill="#f472b6"/> <circle cx="120" cy="392" r="20" fill="#f472b6"/>

  <g stroke="#ffffff" stroke-width="8" stroke-opacity="0.5" stroke-linecap="round">
     <line x1="180" y1="180" x2="220" y2="220" />
     <line x1="290" y1="290" x2="330" y2="330" />
     <line x1="180" y1="332" x2="220" y2="290" />
     <line x1="290" y1="220" x2="330" y2="180" />
  </g>
</svg>